<?xml version='1.0' encoding='UTF-8'?>
<svg width="59.2mm" height="59.2mm" version="1.1" viewBox="0 0 59.2 59.2" xmlns="http://www.w3.org/2000/svg"><path d="M3.2,3.2H4.8V4.8H3.2zM4.8,3.2H6.4V4.8H4.8zM6.4,3.2H8V4.8H6.4zM8,3.2H9.6V4.8H8zM9.6,3.2H11.2V4.8H9.6zM11.2,3.2H12.8V4.8H11.2zM12.8,3.2H14.4V4.8H12.8zM19.2,3.2H20.8V4.8H19.2zM20.8,3.2H22.4V4.8H20.8zM22.4,3.2H24V4.8H22.4zM28.8,3.2H30.4V4.8H28.8zM32,3.2H33.6V4.8H32zM33.6,3.2H35.2V4.8H33.6zM35.2,3.2H36.8V4.8H35.2zM40,3.2H41.6V4.8H40zM44.8,3.2H46.4V4.8H44.8zM46.4,3.2H48V4.8H46.4zM48,3.2H49.6V4.8H48zM49.6,3.2H51.2V4.8H49.6zM51.2,3.2H52.8V4.8H51.2zM52.8,3.2H54.4V4.8H52.8zM54.4,3.2H56V4.8H54.4zM3.2,4.8H4.8V6.4H3.2zM12.8,4.8H14.4V6.4H12.8zM19.2,4.8H20.8V6.4H19.2zM27.2,4.8H28.8V6.4H27.2zM32,4.8H33.6V6.4H32zM38.4,4.8H40V6.4H38.4zM41.6,4.8H43.2V6.4H41.6zM44.8,4.8H46.4V6.4H44.8zM54.4,4.8H56V6.4H54.4zM3.2,6.4H4.8V8H3.2zM6.4,6.4H8V8H6.4zM8,6.4H9.6V8H8zM9.6,6.4H11.2V8H9.6zM12.8,6.4H14.4V8H12.8zM16,6.4H17.6V8H16zM17.6,6.4H19.2V8H17.6zM25.6,6.4H27.2V8H25.6zM35.2,6.4H36.8V8H35.2zM36.8,6.4H38.4V8H36.8zM38.4,6.4H40V8H38.4zM40,6.4H41.6V8H40zM44.8,6.4H46.4V8H44.8zM48,6.4H49.6V8H48zM49.6,6.4H51.2V8H49.6zM51.2,6.4H52.8V8H51.2zM54.4,6.4H56V8H54.4zM3.2,8H4.8V9.6H3.2zM6.4,8H8V9.6H6.4zM8,8H9.6V9.6H8zM9.6,8H11.2V9.6H9.6zM12.8,8H14.4V9.6H12.8zM16,8H17.6V9.6H16zM17.6,8H19.2V9.6H17.6zM20.8,8H22.4V9.6H20.8zM27.2,8H28.8V9.6H27.2zM32,8H33.6V9.6H32zM38.4,8H40V9.6H38.4zM40,8H41.6V9.6H40zM41.6,8H43.2V9.6H41.6zM44.8,8H46.4V9.6H44.8zM48,8H49.6V9.6H48zM49.6,8H51.2V9.6H49.6zM51.2,8H52.8V9.6H51.2zM54.4,8H56V9.6H54.4zM3.2,9.6H4.8V11.2H3.2zM6.4,9.6H8V11.2H6.4zM8,9.6H9.6V11.2H8zM9.6,9.6H11.2V11.2H9.6zM12.8,9.6H14.4V11.2H12.8zM16,9.6H17.6V11.2H16zM20.8,9.6H22.4V11.2H20.8zM24,9.6H25.6V11.2H24zM25.6,9.6H27.2V11.2H25.6zM27.2,9.6H28.8V11.2H27.2zM28.8,9.6H30.4V11.2H28.8zM30.4,9.6H32V11.2H30.4zM35.2,9.6H36.8V11.2H35.2zM36.8,9.6H38.4V11.2H36.8zM38.4,9.6H40V11.2H38.4zM40,9.6H41.6V11.2H40zM44.8,9.6H46.4V11.2H44.8zM48,9.6H49.6V11.2H48zM49.6,9.6H51.2V11.2H49.6zM51.2,9.6H52.8V11.2H51.2zM54.4,9.6H56V11.2H54.4zM3.2,11.2H4.8V12.8H3.2zM12.8,11.2H14.4V12.8H12.8zM16,11.2H17.6V12.8H16zM17.6,11.2H19.2V12.8H17.6zM20.8,11.2H22.4V12.8H20.8zM22.4,11.2H24V12.8H22.4zM24,11.2H25.6V12.8H24zM25.6,11.2H27.2V12.8H25.6zM32,11.2H33.6V12.8H32zM33.6,11.2H35.2V12.8H33.6zM38.4,11.2H40V12.8H38.4zM41.6,11.2H43.2V12.8H41.6zM44.8,11.2H46.4V12.8H44.8zM54.4,11.2H56V12.8H54.4zM3.2,12.8H4.8V14.4H3.2zM4.8,12.8H6.4V14.4H4.8zM6.4,12.8H8V14.4H6.4zM8,12.8H9.6V14.4H8zM9.6,12.8H11.2V14.4H9.6zM11.2,12.8H12.8V14.4H11.2zM12.8,12.8H14.4V14.4H12.8zM16,12.8H17.6V14.4H16zM19.2,12.8H20.8V14.4H19.2zM22.4,12.8H24V14.4H22.4zM25.6,12.8H27.2V14.4H25.6zM28.8,12.8H30.4V14.4H28.8zM32,12.8H33.6V14.4H32zM35.2,12.8H36.8V14.4H35.2zM38.4,12.8H40V14.4H38.4zM41.6,12.8H43.2V14.4H41.6zM44.8,12.8H46.4V14.4H44.8zM46.4,12.8H48V14.4H46.4zM48,12.8H49.6V14.4H48zM49.6,12.8H51.2V14.4H49.6zM51.2,12.8H52.8V14.4H51.2zM52.8,12.8H54.4V14.4H52.8zM54.4,12.8H56V14.4H54.4zM16,14.4H17.6V16H16zM17.6,14.4H19.2V16H17.6zM20.8,14.4H22.4V16H20.8zM22.4,14.4H24V16H22.4zM28.8,14.4H30.4V16H28.8zM32,14.4H33.6V16H32zM33.6,14.4H35.2V16H33.6zM35.2,14.4H36.8V16H35.2zM36.8,14.4H38.4V16H36.8zM38.4,14.4H40V16H38.4zM40,14.4H41.6V16H40zM41.6,14.4H43.2V16H41.6zM3.2,16H4.8V17.6H3.2zM6.4,16H8V17.6H6.4zM8,16H9.6V17.6H8zM9.6,16H11.2V17.6H9.6zM11.2,16H12.8V17.6H11.2zM12.8,16H14.4V17.6H12.8zM17.6,16H19.2V17.6H17.6zM19.2,16H20.8V17.6H19.2zM24,16H25.6V17.6H24zM28.8,16H30.4V17.6H28.8zM30.4,16H32V17.6H30.4zM33.6,16H35.2V17.6H33.6zM35.2,16H36.8V17.6H35.2zM38.4,16H40V17.6H38.4zM41.6,16H43.2V17.6H41.6zM44.8,16H46.4V17.6H44.8zM46.4,16H48V17.6H46.4zM48,16H49.6V17.6H48zM49.6,16H51.2V17.6H49.6zM51.2,16H52.8V17.6H51.2zM3.2,17.6H4.8V19.2H3.2zM4.8,17.6H6.4V19.2H4.8zM9.6,17.6H11.2V19.2H9.6zM11.2,17.6H12.8V19.2H11.2zM17.6,17.6H19.2V19.2H17.6zM20.8,17.6H22.4V19.2H20.8zM24,17.6H25.6V19.2H24zM28.8,17.6H30.4V19.2H28.8zM30.4,17.6H32V19.2H30.4zM33.6,17.6H35.2V19.2H33.6zM35.2,17.6H36.8V19.2H35.2zM38.4,17.6H40V19.2H38.4zM40,17.6H41.6V19.2H40zM44.8,17.6H46.4V19.2H44.8zM46.4,17.6H48V19.2H46.4zM49.6,17.6H51.2V19.2H49.6zM51.2,17.6H52.8V19.2H51.2zM54.4,17.6H56V19.2H54.4zM3.2,19.2H4.8V20.8H3.2zM4.8,19.2H6.4V20.8H4.8zM6.4,19.2H8V20.8H6.4zM11.2,19.2H12.8V20.8H11.2zM12.8,19.2H14.4V20.8H12.8zM16,19.2H17.6V20.8H16zM20.8,19.2H22.4V20.8H20.8zM24,19.2H25.6V20.8H24zM25.6,19.2H27.2V20.8H25.6zM27.2,19.2H28.8V20.8H27.2zM28.8,19.2H30.4V20.8H28.8zM30.4,19.2H32V20.8H30.4zM35.2,19.2H36.8V20.8H35.2zM36.8,19.2H38.4V20.8H36.8zM43.2,19.2H44.8V20.8H43.2zM44.8,19.2H46.4V20.8H44.8zM48,19.2H49.6V20.8H48zM51.2,19.2H52.8V20.8H51.2zM52.8,19.2H54.4V20.8H52.8zM3.2,20.8H4.8V22.4H3.2zM6.4,20.8H8V22.4H6.4zM11.2,20.8H12.8V22.4H11.2zM17.6,20.8H19.2V22.4H17.6zM19.2,20.8H20.8V22.4H19.2zM20.8,20.8H22.4V22.4H20.8zM24,20.8H25.6V22.4H24zM28.8,20.8H30.4V22.4H28.8zM30.4,20.8H32V22.4H30.4zM32,20.8H33.6V22.4H32zM36.8,20.8H38.4V22.4H36.8zM40,20.8H41.6V22.4H40zM43.2,20.8H44.8V22.4H43.2zM48,20.8H49.6V22.4H48zM49.6,20.8H51.2V22.4H49.6zM51.2,20.8H52.8V22.4H51.2zM52.8,20.8H54.4V22.4H52.8zM9.6,22.4H11.2V24H9.6zM11.2,22.4H12.8V24H11.2zM12.8,22.4H14.4V24H12.8zM14.4,22.4H16V24H14.4zM19.2,22.4H20.8V24H19.2zM20.8,22.4H22.4V24H20.8zM25.6,22.4H27.2V24H25.6zM28.8,22.4H30.4V24H28.8zM33.6,22.4H35.2V24H33.6zM35.2,22.4H36.8V24H35.2zM40,22.4H41.6V24H40zM41.6,22.4H43.2V24H41.6zM43.2,22.4H44.8V24H43.2zM46.4,22.4H48V24H46.4zM48,22.4H49.6V24H48zM49.6,22.4H51.2V24H49.6zM52.8,22.4H54.4V24H52.8zM4.8,24H6.4V25.6H4.8zM6.4,24H8V25.6H6.4zM11.2,24H12.8V25.6H11.2zM19.2,24H20.8V25.6H19.2zM24,24H25.6V25.6H24zM27.2,24H28.8V25.6H27.2zM32,24H33.6V25.6H32zM36.8,24H38.4V25.6H36.8zM40,24H41.6V25.6H40zM43.2,24H44.8V25.6H43.2zM44.8,24H46.4V25.6H44.8zM46.4,24H48V25.6H46.4zM51.2,24H52.8V25.6H51.2zM52.8,24H54.4V25.6H52.8zM54.4,24H56V25.6H54.4zM8,25.6H9.6V27.2H8zM12.8,25.6H14.4V27.2H12.8zM17.6,25.6H19.2V27.2H17.6zM20.8,25.6H22.4V27.2H20.8zM22.4,25.6H24V27.2H22.4zM24,25.6H25.6V27.2H24zM25.6,25.6H27.2V27.2H25.6zM27.2,25.6H28.8V27.2H27.2zM28.8,25.6H30.4V27.2H28.8zM35.2,25.6H36.8V27.2H35.2zM38.4,25.6H40V27.2H38.4zM41.6,25.6H43.2V27.2H41.6zM43.2,25.6H44.8V27.2H43.2zM44.8,25.6H46.4V27.2H44.8zM48,25.6H49.6V27.2H48zM52.8,25.6H54.4V27.2H52.8zM3.2,27.2H4.8V28.8H3.2zM4.8,27.2H6.4V28.8H4.8zM11.2,27.2H12.8V28.8H11.2zM16,27.2H17.6V28.8H16zM19.2,27.2H20.8V28.8H19.2zM20.8,27.2H22.4V28.8H20.8zM24,27.2H25.6V28.8H24zM25.6,27.2H27.2V28.8H25.6zM27.2,27.2H28.8V28.8H27.2zM36.8,27.2H38.4V28.8H36.8zM38.4,27.2H40V28.8H38.4zM43.2,27.2H44.8V28.8H43.2zM44.8,27.2H46.4V28.8H44.8zM49.6,27.2H51.2V28.8H49.6zM51.2,27.2H52.8V28.8H51.2zM6.4,28.8H8V30.4H6.4zM8,28.8H9.6V30.4H8zM9.6,28.8H11.2V30.4H9.6zM12.8,28.8H14.4V30.4H12.8zM14.4,28.8H16V30.4H14.4zM17.6,28.8H19.2V30.4H17.6zM25.6,28.8H27.2V30.4H25.6zM27.2,28.8H28.8V30.4H27.2zM30.4,28.8H32V30.4H30.4zM38.4,28.8H40V30.4H38.4zM41.6,28.8H43.2V30.4H41.6zM43.2,28.8H44.8V30.4H43.2zM46.4,28.8H48V30.4H46.4zM48,28.8H49.6V30.4H48zM49.6,28.8H51.2V30.4H49.6zM54.4,28.8H56V30.4H54.4zM4.8,30.4H6.4V32H4.8zM6.4,30.4H8V32H6.4zM8,30.4H9.6V32H8zM9.6,30.4H11.2V32H9.6zM14.4,30.4H16V32H14.4zM19.2,30.4H20.8V32H19.2zM24,30.4H25.6V32H24zM32,30.4H33.6V32H32zM33.6,30.4H35.2V32H33.6zM35.2,30.4H36.8V32H35.2zM40,30.4H41.6V32H40zM44.8,30.4H46.4V32H44.8zM46.4,30.4H48V32H46.4zM49.6,30.4H51.2V32H49.6zM51.2,30.4H52.8V32H51.2zM54.4,30.4H56V32H54.4zM6.4,32H8V33.6H6.4zM8,32H9.6V33.6H8zM9.6,32H11.2V33.6H9.6zM12.8,32H14.4V33.6H12.8zM14.4,32H16V33.6H14.4zM19.2,32H20.8V33.6H19.2zM25.6,32H27.2V33.6H25.6zM27.2,32H28.8V33.6H27.2zM28.8,32H30.4V33.6H28.8zM32,32H33.6V33.6H32zM35.2,32H36.8V33.6H35.2zM38.4,32H40V33.6H38.4zM41.6,32H43.2V33.6H41.6zM46.4,32H48V33.6H46.4zM48,32H49.6V33.6H48zM51.2,32H52.8V33.6H51.2zM52.8,32H54.4V33.6H52.8zM6.4,33.6H8V35.2H6.4zM8,33.6H9.6V35.2H8zM9.6,33.6H11.2V35.2H9.6zM11.2,33.6H12.8V35.2H11.2zM17.6,33.6H19.2V35.2H17.6zM24,33.6H25.6V35.2H24zM25.6,33.6H27.2V35.2H25.6zM28.8,33.6H30.4V35.2H28.8zM33.6,33.6H35.2V35.2H33.6zM35.2,33.6H36.8V35.2H35.2zM36.8,33.6H38.4V35.2H36.8zM38.4,33.6H40V35.2H38.4zM40,33.6H41.6V35.2H40zM41.6,33.6H43.2V35.2H41.6zM43.2,33.6H44.8V35.2H43.2zM44.8,33.6H46.4V35.2H44.8zM46.4,33.6H48V35.2H46.4zM48,33.6H49.6V35.2H48zM49.6,33.6H51.2V35.2H49.6zM51.2,33.6H52.8V35.2H51.2zM52.8,33.6H54.4V35.2H52.8zM54.4,33.6H56V35.2H54.4zM4.8,35.2H6.4V36.8H4.8zM6.4,35.2H8V36.8H6.4zM8,35.2H9.6V36.8H8zM12.8,35.2H14.4V36.8H12.8zM19.2,35.2H20.8V36.8H19.2zM20.8,35.2H22.4V36.8H20.8zM24,35.2H25.6V36.8H24zM32,35.2H33.6V36.8H32zM36.8,35.2H38.4V36.8H36.8zM40,35.2H41.6V36.8H40zM41.6,35.2H43.2V36.8H41.6zM43.2,35.2H44.8V36.8H43.2zM48,35.2H49.6V36.8H48zM49.6,35.2H51.2V36.8H49.6zM52.8,35.2H54.4V36.8H52.8zM3.2,36.8H4.8V38.4H3.2zM4.8,36.8H6.4V38.4H4.8zM6.4,36.8H8V38.4H6.4zM8,36.8H9.6V38.4H8zM14.4,36.8H16V38.4H14.4zM20.8,36.8H22.4V38.4H20.8zM27.2,36.8H28.8V38.4H27.2zM28.8,36.8H30.4V38.4H28.8zM35.2,36.8H36.8V38.4H35.2zM40,36.8H41.6V38.4H40zM44.8,36.8H46.4V38.4H44.8zM49.6,36.8H51.2V38.4H49.6zM51.2,36.8H52.8V38.4H51.2zM54.4,36.8H56V38.4H54.4zM3.2,38.4H4.8V40H3.2zM6.4,38.4H8V40H6.4zM9.6,38.4H11.2V40H9.6zM12.8,38.4H14.4V40H12.8zM14.4,38.4H16V40H14.4zM17.6,38.4H19.2V40H17.6zM22.4,38.4H24V40H22.4zM30.4,38.4H32V40H30.4zM32,38.4H33.6V40H32zM33.6,38.4H35.2V40H33.6zM38.4,38.4H40V40H38.4zM41.6,38.4H43.2V40H41.6zM43.2,38.4H44.8V40H43.2zM52.8,38.4H54.4V40H52.8zM3.2,40H4.8V41.6H3.2zM11.2,40H12.8V41.6H11.2zM17.6,40H19.2V41.6H17.6zM22.4,40H24V41.6H22.4zM24,40H25.6V41.6H24zM25.6,40H27.2V41.6H25.6zM28.8,40H30.4V41.6H28.8zM32,40H33.6V41.6H32zM33.6,40H35.2V41.6H33.6zM35.2,40H36.8V41.6H35.2zM36.8,40H38.4V41.6H36.8zM38.4,40H40V41.6H38.4zM40,40H41.6V41.6H40zM43.2,40H44.8V41.6H43.2zM44.8,40H46.4V41.6H44.8zM49.6,40H51.2V41.6H49.6zM51.2,40H52.8V41.6H51.2zM52.8,40H54.4V41.6H52.8zM54.4,40H56V41.6H54.4zM3.2,41.6H4.8V43.2H3.2zM9.6,41.6H11.2V43.2H9.6zM11.2,41.6H12.8V43.2H11.2zM12.8,41.6H14.4V43.2H12.8zM14.4,41.6H16V43.2H14.4zM24,41.6H25.6V43.2H24zM30.4,41.6H32V43.2H30.4zM32,41.6H33.6V43.2H32zM33.6,41.6H35.2V43.2H33.6zM38.4,41.6H40V43.2H38.4zM40,41.6H41.6V43.2H40zM41.6,41.6H43.2V43.2H41.6zM43.2,41.6H44.8V43.2H43.2zM44.8,41.6H46.4V43.2H44.8zM46.4,41.6H48V43.2H46.4zM48,41.6H49.6V43.2H48zM52.8,41.6H54.4V43.2H52.8zM54.4,41.6H56V43.2H54.4zM16,43.2H17.6V44.8H16zM19.2,43.2H20.8V44.8H19.2zM22.4,43.2H24V44.8H22.4zM24,43.2H25.6V44.8H24zM28.8,43.2H30.4V44.8H28.8zM30.4,43.2H32V44.8H30.4zM32,43.2H33.6V44.8H32zM33.6,43.2H35.2V44.8H33.6zM35.2,43.2H36.8V44.8H35.2zM41.6,43.2H43.2V44.8H41.6zM48,43.2H49.6V44.8H48zM51.2,43.2H52.8V44.8H51.2zM52.8,43.2H54.4V44.8H52.8zM54.4,43.2H56V44.8H54.4zM3.2,44.8H4.8V46.4H3.2zM4.8,44.8H6.4V46.4H4.8zM6.4,44.8H8V46.4H6.4zM8,44.8H9.6V46.4H8zM9.6,44.8H11.2V46.4H9.6zM11.2,44.8H12.8V46.4H11.2zM12.8,44.8H14.4V46.4H12.8zM19.2,44.8H20.8V46.4H19.2zM20.8,44.8H22.4V46.4H20.8zM22.4,44.8H24V46.4H22.4zM27.2,44.8H28.8V46.4H27.2zM28.8,44.8H30.4V46.4H28.8zM30.4,44.8H32V46.4H30.4zM38.4,44.8H40V46.4H38.4zM40,44.8H41.6V46.4H40zM41.6,44.8H43.2V46.4H41.6zM44.8,44.8H46.4V46.4H44.8zM48,44.8H49.6V46.4H48zM51.2,44.8H52.8V46.4H51.2zM52.8,44.8H54.4V46.4H52.8zM3.2,46.4H4.8V48H3.2zM12.8,46.4H14.4V48H12.8zM16,46.4H17.6V48H16zM17.6,46.4H19.2V48H17.6zM20.8,46.4H22.4V48H20.8zM24,46.4H25.6V48H24zM27.2,46.4H28.8V48H27.2zM30.4,46.4H32V48H30.4zM32,46.4H33.6V48H32zM33.6,46.4H35.2V48H33.6zM35.2,46.4H36.8V48H35.2zM40,46.4H41.6V48H40zM41.6,46.4H43.2V48H41.6zM48,46.4H49.6V48H48zM49.6,46.4H51.2V48H49.6zM51.2,46.4H52.8V48H51.2zM52.8,46.4H54.4V48H52.8zM3.2,48H4.8V49.6H3.2zM6.4,48H8V49.6H6.4zM8,48H9.6V49.6H8zM9.6,48H11.2V49.6H9.6zM12.8,48H14.4V49.6H12.8zM16,48H17.6V49.6H16zM17.6,48H19.2V49.6H17.6zM19.2,48H20.8V49.6H19.2zM20.8,48H22.4V49.6H20.8zM22.4,48H24V49.6H22.4zM28.8,48H30.4V49.6H28.8zM33.6,48H35.2V49.6H33.6zM35.2,48H36.8V49.6H35.2zM36.8,48H38.4V49.6H36.8zM38.4,48H40V49.6H38.4zM41.6,48H43.2V49.6H41.6zM43.2,48H44.8V49.6H43.2zM44.8,48H46.4V49.6H44.8zM46.4,48H48V49.6H46.4zM48,48H49.6V49.6H48zM49.6,48H51.2V49.6H49.6zM52.8,48H54.4V49.6H52.8zM54.4,48H56V49.6H54.4zM3.2,49.6H4.8V51.2H3.2zM6.4,49.6H8V51.2H6.4zM8,49.6H9.6V51.2H8zM9.6,49.6H11.2V51.2H9.6zM12.8,49.6H14.4V51.2H12.8zM16,49.6H17.6V51.2H16zM17.6,49.6H19.2V51.2H17.6zM19.2,49.6H20.8V51.2H19.2zM20.8,49.6H22.4V51.2H20.8zM25.6,49.6H27.2V51.2H25.6zM27.2,49.6H28.8V51.2H27.2zM30.4,49.6H32V51.2H30.4zM32,49.6H33.6V51.2H32zM40,49.6H41.6V51.2H40zM43.2,49.6H44.8V51.2H43.2zM48,49.6H49.6V51.2H48zM54.4,49.6H56V51.2H54.4zM3.2,51.2H4.8V52.8H3.2zM6.4,51.2H8V52.8H6.4zM8,51.2H9.6V52.8H8zM9.6,51.2H11.2V52.8H9.6zM12.8,51.2H14.4V52.8H12.8zM16,51.2H17.6V52.8H16zM17.6,51.2H19.2V52.8H17.6zM19.2,51.2H20.8V52.8H19.2zM24,51.2H25.6V52.8H24zM25.6,51.2H27.2V52.8H25.6zM27.2,51.2H28.8V52.8H27.2zM28.8,51.2H30.4V52.8H28.8zM30.4,51.2H32V52.8H30.4zM35.2,51.2H36.8V52.8H35.2zM38.4,51.2H40V52.8H38.4zM40,51.2H41.6V52.8H40zM44.8,51.2H46.4V52.8H44.8zM46.4,51.2H48V52.8H46.4zM49.6,51.2H51.2V52.8H49.6zM51.2,51.2H52.8V52.8H51.2zM3.2,52.8H4.8V54.4H3.2zM12.8,52.8H14.4V54.4H12.8zM20.8,52.8H22.4V54.4H20.8zM24,52.8H25.6V54.4H24zM25.6,52.8H27.2V54.4H25.6zM27.2,52.8H28.8V54.4H27.2zM32,52.8H33.6V54.4H32zM36.8,52.8H38.4V54.4H36.8zM48,52.8H49.6V54.4H48zM49.6,52.8H51.2V54.4H49.6zM51.2,52.8H52.8V54.4H51.2zM3.2,54.4H4.8V56H3.2zM4.8,54.4H6.4V56H4.8zM6.4,54.4H8V56H6.4zM8,54.4H9.6V56H8zM9.6,54.4H11.2V56H9.6zM11.2,54.4H12.8V56H11.2zM12.8,54.4H14.4V56H12.8zM16,54.4H17.6V56H16zM19.2,54.4H20.8V56H19.2zM25.6,54.4H27.2V56H25.6zM27.2,54.4H28.8V56H27.2zM30.4,54.4H32V56H30.4zM40,54.4H41.6V56H40zM41.6,54.4H43.2V56H41.6zM43.2,54.4H44.8V56H43.2zM46.4,54.4H48V56H46.4zM52.8,54.4H54.4V56H52.8z" id="qr-path" fill="#000000" fill-opacity="1" fill-rule="nonzero" stroke="none"/></svg>